<?xml version="1.0" encoding="UTF-8" standalone="no"?>
<!-- Svg Vector Icons : http://www.onlinewebfonts.com/icon -->

<svg
   xmlns:dc="http://purl.org/dc/elements/1.1/"
   xmlns:cc="http://creativecommons.org/ns#"
   xmlns:rdf="http://www.w3.org/1999/02/22-rdf-syntax-ns#"
   xmlns:svg="http://www.w3.org/2000/svg"
   xmlns="http://www.w3.org/2000/svg"
   xmlns:sodipodi="http://sodipodi.sourceforge.net/DTD/sodipodi-0.dtd"
   xmlns:inkscape="http://www.inkscape.org/namespaces/inkscape"
   version="1.1"
   x="0px"
   y="0px"
   viewBox="0 0 1000 1000"
   enable-background="new 0 0 1000 1000"
   xml:space="preserve"
   id="svg14"
   sodipodi:docname="carrot-pot-irrigated.svg"
   inkscape:version="0.92.2 5c3e80d, 2017-08-06"><defs
     id="defs18" /><sodipodi:namedview
     pagecolor="#ffffff"
     bordercolor="#666666"
     borderopacity="1"
     objecttolerance="10"
     gridtolerance="10"
     guidetolerance="10"
     inkscape:pageopacity="0"
     inkscape:pageshadow="2"
     inkscape:window-width="1440"
     inkscape:window-height="855"
     id="namedview16"
     showgrid="false"
     inkscape:zoom="0.472"
     inkscape:cx="438.60589"
     inkscape:cy="500"
     inkscape:window-x="0"
     inkscape:window-y="1"
     inkscape:window-maximized="1"
     inkscape:current-layer="svg14" /><metadata
     id="metadata2"> Svg Vector Icons : http://www.onlinewebfonts.com/icon <rdf:RDF><cc:Work
     rdf:about=""><dc:format>image/svg+xml</dc:format><dc:type
       rdf:resource="http://purl.org/dc/dcmitype/StillImage" /></cc:Work></rdf:RDF></metadata><path
     style="fill:#5dadec;stroke:none;stroke-width:1px;stroke-linecap:butt;stroke-linejoin:miter;stroke-opacity:1;fill-opacity:1"
     d="m 197.0339,572.0339 86.86441,389.83051 440.67796,-4.23729 82.62712,-379.23729 -135.59322,2.11864 -36.01695,283.89831 -266.94915,-8.47458 -59.32204,-286.01695 z"
     id="path3716"
     inkscape:connector-curvature="0" /><path
     d="m 588.55,12.2 c -21.77,7.13 -44.88,26.97 -55.86,47.77 -3.27,6.16 -6.36,11.17 -6.94,11.17 -0.77,0 -1.73,-3.66 -2.5,-8.09 -3.47,-21.38 -15.22,-36.79 -31.21,-40.26 -19.84,-4.43 -49.7,5.97 -63.57,22.15 -11.56,13.68 -15.02,25.43 -15.02,54.13 0,27.35 3.27,45.08 11.17,60.68 l 4.62,9.05 -7.51,2.31 c -12.14,3.66 -21,20.42 -21,39.68 0,18.69 16.76,43.54 31.21,46.62 l 5.2,0.96 -4.05,5.59 c -3.27,4.43 -4.04,8.09 -3.85,19.46 0.19,16.76 2.31,23.5 10.6,31.98 11.37,11.94 31.21,18.88 45.08,15.8 l 6.74,-1.54 -1.16,5.97 c -2.5,14.06 -5.01,41.8 -5.01,56.63 v 15.6 l -6.16,1.35 c -12.91,2.7 -24.27,10.59 -28.9,20.03 -3.66,7.32 -4.24,12.14 -4.24,31.98 l -0.19,23.12 7.13,3.47 c 6.36,3.08 8.48,3.27 16.37,1.35 18.69,-4.62 20.8,-4.43 26.58,0.58 7.71,6.55 7.9,17.34 0.39,23.69 -7.51,6.36 -24.85,11.17 -36.79,9.83 l -9.82,-0.96 -0.77,26.2 c -0.39,14.64 -0.77,42.38 -0.96,62.03 l -0.19,35.64 14.45,-0.19 c 9.63,-0.19 18.11,-1.74 25.04,-4.43 13.87,-5.39 20.23,-5.2 26,0.77 6.55,6.36 6.55,16.18 0,22.54 -6.36,6.55 -28.32,13.29 -47,14.83 l -15.03,1.15 3.66,18.3 c 8.67,42.96 24.85,78.79 39.49,87.26 7.71,4.43 11.94,3.28 21.96,-5.78 10.21,-9.25 14.83,-22.73 18.11,-54.32 5.58,-50.85 8.86,-72.62 13.87,-91.69 2.7,-10.59 5.2,-21 5.78,-23.12 0.77,-3.47 -0.58,-4.24 -13.87,-6.16 -16.76,-2.7 -39.68,-12.91 -47,-20.61 -6.74,-7.32 -6.55,-17.53 0.58,-23.5 7.13,-6.36 11.17,-5.78 29.09,3.08 11.56,5.97 18.69,8.09 28.12,9.05 l 12.91,1.16 1.93,-9.44 c 5.39,-25.24 8.67,-56.06 8.86,-82.64 0.19,-37.56 -1.93,-46.42 -13.68,-56.83 -4.82,-4.24 -12.33,-8.67 -16.57,-10.02 l -7.71,-2.31 1.16,-35.83 c 0.77,-19.65 1.73,-37.56 2.5,-39.68 0.77,-3.27 3.08,-4.43 10.02,-5.2 16.57,-1.73 25.43,-19.26 19.07,-37.37 l -2.89,-8.28 6.55,-1.16 c 24.46,-4.62 49.31,-42.76 46.42,-71.27 l -1.16,-10.4 7.51,-1.93 c 24.46,-6.55 49.89,-42.19 50.66,-70.5 0.39,-17.91 -15.6,-36.6 -34.48,-40.26 l -6.74,-1.16 7.51,-8.28 c 9.44,-10.21 12.52,-19.46 11.56,-33.9 -0.96,-13.48 -7.51,-24.46 -19.26,-32.17 -6.93,-4.62 -10.21,-5.39 -23.5,-5.78 -9.06,-0.4 -18.88,0.56 -23.31,2.1 z m -43.92,454.81 c 5.01,3.47 8.09,11.94 6.36,18.3 -1.73,6.93 -13.1,14.06 -20.03,12.71 -11.36,-2.31 -16.76,-12.33 -12.52,-22.73 4.04,-9.83 17.71,-14.26 26.19,-8.28 z"
     id="path4"
     inkscape:connector-curvature="0"
     style="stroke-width:0.1" /><path
     d="m 101.96,418.85 c -9.82,5.39 -10.4,10.4 -4.82,52.01 2.7,20.61 5.97,39.49 7.13,41.61 3.47,6.74 13.48,9.44 34.87,9.44 h 19.84 l 46.81,228.84 c 46.23,226.34 46.81,228.65 52.4,233.85 l 5.78,5.39 h 235.97 235.97 l 5.78,-5.2 c 5.59,-5.39 6.16,-8.09 40.26,-174.91 19.07,-93.23 40.07,-196.1 46.81,-228.85 l 12.14,-59.12 h 19.84 c 21.38,0 31.4,-2.7 34.87,-9.44 1.16,-2.12 4.43,-21 7.13,-41.61 7.51,-57.21 10.02,-54.9 -59.52,-54.9 H 794.1 l -0.96,4.24 c -0.58,2.5 -21.57,117.5 -46.62,255.81 -25.04,138.31 -45.85,252.92 -46.42,254.66 -0.96,3.28 -12.14,3.47 -200.14,3.47 -188.01,0 -199.18,-0.19 -200.14,-3.47 -0.58,-1.73 -21,-113.85 -45.46,-248.88 C 229.87,546.75 209.07,431.56 207.91,425.98 l -1.93,-10.02 h -49.51 c -38.9,0.19 -50.65,0.77 -54.51,2.89 z"
     id="path6"
     inkscape:connector-curvature="0"
     style="stroke-width:0.1" /><path
     d="m 276.49,435.41 c -7.32,2.12 -12.52,8.86 -12.52,16.18 0,3.08 16.76,99.01 37.37,212.86 36.41,201.3 37.56,207.08 42.57,211.32 l 5.2,4.43 151.79,-0.38 c 151.79,-0.58 151.99,-0.58 156.22,-4.62 3.47,-3.47 9.05,-32.36 41.42,-210.93 20.42,-113.85 37.37,-209.59 37.37,-212.67 0,-8.09 -4.62,-13.87 -13.1,-16.37 -4.05,-1.16 -30.44,-1.93 -62.61,-1.93 h -55.67 l 1.74,10.02 c 0.77,5.58 1.54,27.54 1.35,48.73 0,47.58 -2.7,65.3 -19.07,130.6 -15.03,60.1 -15.41,62.03 -20.23,109.22 -5.97,57.6 -12.52,78.21 -30.44,96.12 -25.81,25.81 -58.37,24.66 -82.64,-2.7 -16.95,-19.07 -29.67,-52.2 -42.38,-110.38 l -5.39,-24.46 -0.19,-79.94 c 0,-43.92 -0.19,-101.9 -0.38,-128.68 l -0.39,-48.54 -62.03,0.19 c -34.28,0.01 -64.72,0.97 -67.99,1.93 z"
     id="path8"
     inkscape:connector-curvature="0"
     style="stroke-width:0.1" /></svg>