<?xml version="1.0" encoding="utf-8"?>
<!-- Svg Vector Icons : http://www.onlinewebfonts.com/icon -->
<!DOCTYPE svg PUBLIC "-//W3C//DTD SVG 1.1//EN" "http://www.w3.org/Graphics/SVG/1.1/DTD/svg11.dtd">
<svg version="1.1" xmlns="http://www.w3.org/2000/svg" xmlns:xlink="http://www.w3.org/1999/xlink" x="0px" y="0px" viewBox="0 0 1000 1000" enable-background="new 0 0 1000 1000" xml:space="preserve">
<metadata> Svg Vector Icons : http://www.onlinewebfonts.com/icon </metadata>
<g><g transform="translate(0.000000,511.000000) scale(0.100000,-0.100000)"><path d="M5885.5,4988c-217.7-71.3-448.8-269.7-558.6-477.7c-32.7-61.6-63.6-111.7-69.4-111.7c-7.7,0-17.3,36.6-25,80.9c-34.7,213.8-152.2,367.9-312.1,402.6c-198.4,44.3-497-59.7-635.7-221.5c-115.6-136.8-150.2-254.3-150.2-541.3c0-273.5,32.7-450.8,111.7-606.8l46.2-90.5l-75.1-23.1c-121.4-36.6-210-204.2-210-396.8c0-186.9,167.6-435.4,312.1-466.2l52-9.6l-40.5-55.9c-32.7-44.3-40.4-80.9-38.5-194.6c1.9-167.6,23.1-235,106-319.8c113.7-119.4,312.1-188.8,450.8-158l67.4,15.4l-11.6-59.7c-25-140.6-50.1-418-50.1-566.3v-156l-61.6-13.5c-129.1-27-242.7-105.9-289-200.3c-36.6-73.2-42.4-121.4-42.4-319.8l-1.9-231.2l71.3-34.7c63.6-30.8,84.8-32.7,163.7-13.5c186.9,46.2,208,44.3,265.8-5.8c77.1-65.5,79-173.4,3.9-236.9c-75.1-63.6-248.5-111.7-367.9-98.3l-98.2,9.6l-7.7-262c-3.9-146.4-7.7-423.8-9.6-620.3l-1.9-356.4l144.5,1.9c96.3,1.9,181.1,17.4,250.4,44.3c138.7,53.9,202.3,52,260-7.7c65.5-63.6,65.5-161.8,0-225.4c-63.6-65.5-283.2-132.9-470-148.3l-150.3-11.5l36.6-183c86.7-429.6,248.5-787.9,394.9-872.6c77.1-44.3,119.4-32.8,219.6,57.8c102.1,92.5,148.3,227.3,181.1,543.2c55.8,508.5,88.6,726.2,138.7,916.9c27,105.9,52,210,57.8,231.2c7.7,34.7-5.8,42.4-138.7,61.6c-167.6,27-396.8,129.1-470,206.1c-67.4,73.2-65.5,175.3,5.8,235c71.3,63.6,111.7,57.8,290.9-30.8c115.6-59.7,186.9-80.9,281.2-90.5l129.1-11.6l19.3,94.4c53.9,252.4,86.7,560.6,88.6,826.4c1.9,375.6-19.3,464.2-136.8,568.3c-48.2,42.4-123.3,86.7-165.7,100.2l-77.1,23.1l11.6,358.3c7.7,196.5,17.3,375.6,25,396.8c7.7,32.7,30.8,44.3,100.2,52c165.7,17.3,254.3,192.6,190.7,373.7l-28.9,82.8l65.5,11.6c244.6,46.2,493.1,427.6,464.2,712.7l-11.6,104l75.1,19.3c244.6,65.5,498.9,421.9,506.6,705c3.9,179.1-156,366-344.8,402.6l-67.4,11.6l75.1,82.8c94.4,102.1,125.2,194.6,115.6,339c-9.6,134.8-75.1,244.6-192.6,321.7c-69.3,46.2-102.1,53.9-235,57.8C6028,5013,5929.8,5003.4,5885.5,4988z M5446.3,439.9c50.1-34.7,80.9-119.4,63.6-183c-17.3-69.3-131-140.6-200.3-127.1c-113.6,23.1-167.6,123.3-125.2,227.3C5224.8,455.4,5361.5,499.7,5446.3,439.9z"/><path d="M1019.6,921.5c-98.2-53.9-104-104-48.2-520.1c27-206.1,59.7-394.9,71.3-416.1c34.7-67.4,134.8-94.4,348.7-94.4h198.4l468.1-2288.4c462.3-2263.4,468.1-2286.5,524-2338.5l57.8-53.9h2359.7h2359.7l57.8,52c55.9,53.9,61.6,80.9,402.6,1749.1c190.7,932.3,400.7,1961,468.1,2288.5L8409-109.1h198.4c213.8,0,314,27,348.7,94.4c11.6,21.2,44.3,210,71.3,416.1c75.1,572.1,100.2,549-595.2,549h-491.2l-9.6-42.4c-5.8-25-215.7-1175-466.2-2558.1c-250.4-1383.1-458.5-2529.2-464.2-2546.6c-9.6-32.8-121.4-34.7-2001.4-34.7c-1880.1,0-1991.8,1.9-2001.4,34.7c-5.8,17.3-210,1138.5-454.6,2488.8C2298.7-357.5,2090.7,794.4,2079.1,850.2l-19.3,100.2h-495.1C1175.7,948.5,1058.2,942.7,1019.6,921.5z"/><path d="M2764.9,755.9c-73.2-21.2-125.2-88.6-125.2-161.8c0-30.8,167.6-990.1,373.7-2128.6c364.1-2013,375.6-2070.8,425.7-2113.2l52-44.3l1517.9,3.8c1517.9,5.8,1519.9,5.8,1562.2,46.2c34.7,34.7,90.5,323.6,414.2,2109.3C7189.6-394.2,7359.1,563.2,7359.1,594c0,80.9-46.2,138.7-131,163.7c-40.5,11.6-304.4,19.3-626.1,19.3h-556.7l17.4-100.2c7.7-55.8,15.4-275.4,13.5-487.3c0-475.8-27-653-190.7-1306c-150.3-601-154.1-620.3-202.3-1092.2c-59.7-576-125.2-782.1-304.4-961.2c-258.1-258.1-583.7-246.6-826.4,27c-169.5,190.7-296.7,522-423.8,1103.8l-53.9,244.6l-1.9,799.4c0,439.2-1.9,1019-3.8,1286.8l-3.9,485.4l-620.3-1.9C3102,775.1,2797.6,765.5,2764.9,755.9z"/></g></g>
</svg>