<?xml version="1.0"?><svg width="541" height="745" xmlns="http://www.w3.org/2000/svg">
 <title>Ink Drop</title>

 <g>
  <title>Layer 1</title>
  <path d="m541,460l0,33c-2.200012,6.100006 -0.299988,14.600006 -3,21c-12.400024,108 -104.799988,206.099976 -212,225c-10.899994,4.299988 -23.799988,4.200012 -35,6l-41,0c-11.199997,-1.799988 -24.100006,-1.700012 -35,-6c-115.599998,-19.900024 -209.746,-131.299988 -215,-247l0,-34c3.663,-22.600006 8.322,-46.100006 17.25,-67.700012c9.040001,-17.399994 18.349998,-34.699982 29,-51l34,-46c76.050003,-90.399994 142.649994,-187.499985 192.75,-293.299988l13.799988,29.25c41.400024,100.850006 106.700012,190.149994 178,274.049988c7.700012,11.300018 16,22.300018 25,33c13.400024,20.600006 26.5,41.400024 37,64c7.200012,19.100006 11.700012,39.700012 14.200012,59.700012z" fill="black" id="path412"/>
 </g>
</svg>